HIERARCHY
ROOT Hips
{
	OFFSET 0.000000 83.214638 0.000000
	CHANNELS 6 Xposition Yposition Zposition Xrotation Yrotation Zrotation
	JOINT Pelvis
	{
		OFFSET 0.000000 0.000000 0.000000
		CHANNELS 3 Xrotation Yrotation Zrotation
		JOINT LeftUpLeg
		{
			OFFSET 8.479700 -4.795502 -0.379100
			CHANNELS 3 Xrotation Yrotation Zrotation
			JOINT LeftLeg
			{
				OFFSET 0.024144 -32.555107 0.112900
				CHANNELS 3 Xrotation Yrotation Zrotation
				JOINT LeftFoot
				{
					OFFSET -0.024144 -32.638630 -3.012600
					CHANNELS 3 Xrotation Yrotation Zrotation
					JOINT LeftToeBase
					{
						OFFSET 0.970200 -13.225400 11.864200
						CHANNELS 3 Xrotation Yrotation Zrotation
						End Site
						{
							OFFSET 0.000000 12.319262 0.000000
						}
					}
					JOINT LFootTongue
					{
						OFFSET 1.142400 -1.059800 6.665200
						CHANNELS 3 Xrotation Yrotation Zrotation
						End Site
						{
							OFFSET 0.000000 12.319262 0.000000
						}
					}
				}
				JOINT LeftPantLeg
				{
					OFFSET 0.918482 -16.533964 -2.284700
					CHANNELS 3 Xrotation Yrotation Zrotation
					End Site
					{
						OFFSET 0.350399 24.744368 0.000000
					}
				}
			}
		}
		JOINT RightUpLeg
		{
			OFFSET -8.479700 -4.795502 -0.379100
			CHANNELS 3 Xrotation Yrotation Zrotation
			JOINT RightLeg
			{
				OFFSET -0.023144 -32.555092 0.112900
				CHANNELS 3 Xrotation Yrotation Zrotation
				JOINT RightFoot
				{
					OFFSET 0.023144 -32.638641 -3.012700
					CHANNELS 3 Xrotation Yrotation Zrotation
					JOINT RightToeBase
					{
						OFFSET -0.970200 -13.225400 11.864200
						CHANNELS 3 Xrotation Yrotation Zrotation
						End Site
						{
							OFFSET 0.000000 12.319244 0.000000
						}
					}
					JOINT RFootTongue
					{
						OFFSET -1.142200 -1.059800 6.665200
						CHANNELS 3 Xrotation Yrotation Zrotation
						End Site
						{
							OFFSET 0.000000 12.319243 0.000000
						}
					}
				}
				JOINT RightPantLeg
				{
					OFFSET -0.919482 -16.533978 -2.284800
					CHANNELS 3 Xrotation Yrotation Zrotation
					End Site
					{
						OFFSET -0.350400 24.744419 0.000000
					}
				}
			}
		}
	}
	JOINT Spine
	{
		OFFSET 0.000000 7.722000 1.166200
		CHANNELS 3 Xrotation Yrotation Zrotation
		JOINT Spine1
		{
			OFFSET 0.000000 12.024101 0.248800
			CHANNELS 3 Xrotation Yrotation Zrotation
			JOINT Spine2
			{
				OFFSET 0.000000 11.502998 -0.491200
				CHANNELS 3 Xrotation Yrotation Zrotation
				JOINT Neck
				{
					OFFSET 0.000000 18.430702 -3.123100
					CHANNELS 3 Xrotation Yrotation Zrotation
					JOINT Head
					{
						OFFSET 0.000000 9.051102 1.034000
						CHANNELS 3 Xrotation Yrotation Zrotation
						JOINT HairB
						{
							OFFSET 0.208400 24.786102 24.822300
							CHANNELS 3 Xrotation Yrotation Zrotation
							End Site
							{
								OFFSET 0.000000 32.263779 0.000000
							}
						}
						JOINT HairA
						{
							OFFSET -7.081100 24.428299 23.196600
							CHANNELS 3 Xrotation Yrotation Zrotation
							End Site
							{
								OFFSET 0.000000 32.263779 0.000000
							}
						}
						JOINT Hat
						{
							OFFSET 16.728800 15.048294 -15.439601
							CHANNELS 3 Xrotation Yrotation Zrotation
							End Site
							{
								OFFSET 0.000000 32.263779 0.000000
							}
						}
					}
				}
				JOINT LeftShoulder
				{
					OFFSET 6.197800 13.665199 -4.064700
					CHANNELS 3 Xrotation Yrotation Zrotation
					JOINT LeftArm
					{
						OFFSET 7.778100 -0.187103 -1.709300
						CHANNELS 3 Xrotation Yrotation Zrotation
						JOINT LeftForeArm
						{
							OFFSET 22.049376 0.000000 0.000000
							CHANNELS 3 Xrotation Yrotation Zrotation
							JOINT LeftHand
							{
								OFFSET 23.009392 0.000000 0.000000
								CHANNELS 3 Xrotation Yrotation Zrotation
								JOINT LeftHandThumb1
								{
									OFFSET 3.507191 -2.063065 3.133727
									CHANNELS 3 Xrotation Yrotation Zrotation
									JOINT LeftHandThumb2
									{
										OFFSET 3.101337 -1.790558 1.790558
										CHANNELS 3 Xrotation Yrotation Zrotation
										JOINT LeftHandThumb3
										{
											OFFSET 3.058640 -1.765907 1.765906
											CHANNELS 3 Xrotation Yrotation Zrotation
											End Site
											{
												OFFSET -0.415260 3.926476 -0.049563
											}
										}
									}
								}
								JOINT LeftHandIndex1
								{
									OFFSET 11.334419 -0.901459 3.706815
									CHANNELS 3 Xrotation Yrotation Zrotation
									JOINT LeftHandIndex2
									{
										OFFSET 3.283112 0.000000 0.000000
										CHANNELS 3 Xrotation Yrotation Zrotation
										JOINT LeftHandIndex3
										{
											OFFSET 3.323853 0.000000 0.000000
											CHANNELS 3 Xrotation Yrotation Zrotation
											End Site
											{
												OFFSET -1.135597 3.097809 0.402452
											}
										}
									}
								}
								JOINT LeftHandMiddle1
								{
									OFFSET 11.335861 0.000000 0.000000
									CHANNELS 3 Xrotation Yrotation Zrotation
									JOINT LeftHandMiddle2
									{
										OFFSET 3.410492 0.000000 0.000000
										CHANNELS 3 Xrotation Yrotation Zrotation
										JOINT LeftHandMiddle3
										{
											OFFSET 3.312172 0.000000 0.000000
											CHANNELS 3 Xrotation Yrotation Zrotation
											End Site
											{
												OFFSET -1.150200 3.080154 0.400270
											}
										}
									}
								}
								JOINT LeftHandRing1
								{
									OFFSET 11.514786 -0.013176 -3.003090
									CHANNELS 3 Xrotation Yrotation Zrotation
									JOINT LeftHandRing2
									{
										OFFSET 3.053307 0.000000 0.000000
										CHANNELS 3 Xrotation Yrotation Zrotation
										JOINT LeftHandRing3
										{
											OFFSET 3.295807 0.000000 0.000000
											CHANNELS 3 Xrotation Yrotation Zrotation
											End Site
											{
												OFFSET -1.281006 3.013344 0.375733
											}
										}
									}
								}
								JOINT LeftHandPinky1
								{
									OFFSET 10.518692 -0.960396 -5.730441
									CHANNELS 3 Xrotation Yrotation Zrotation
									JOINT LeftHandPinky2
									{
										OFFSET 2.861649 0.000000 0.000000
										CHANNELS 3 Xrotation Yrotation Zrotation
										JOINT LeftHandPinky3
										{
											OFFSET 2.863380 0.000000 0.000000
											CHANNELS 3 Xrotation Yrotation Zrotation
											End Site
											{
												OFFSET -0.843597 2.711159 0.369971
											}
										}
									}
								}
							}
							JOINT LSleeve
							{
								OFFSET 6.676277 -0.344902 -1.011730
								CHANNELS 3 Xrotation Yrotation Zrotation
								End Site
								{
									OFFSET 0.000000 14.885353 0.000000
								}
							}
						}
					}
				}
				JOINT RightShoulder
				{
					OFFSET -6.197800 13.665199 -4.064700
					CHANNELS 3 Xrotation Yrotation Zrotation
					JOINT RightArm
					{
						OFFSET -7.778100 -0.187103 -1.709300
						CHANNELS 3 Xrotation Yrotation Zrotation
						JOINT RightForeArm
						{
							OFFSET -22.049376 0.000000 0.000000
							CHANNELS 3 Xrotation Yrotation Zrotation
							JOINT RightHand
							{
								OFFSET -23.009392 0.000000 0.000000
								CHANNELS 3 Xrotation Yrotation Zrotation
								JOINT RightHandThumb1
								{
									OFFSET -3.507191 -2.063065 3.133727
									CHANNELS 3 Xrotation Yrotation Zrotation
									JOINT RightHandThumb2
									{
										OFFSET -3.101337 -1.790558 1.790558
										CHANNELS 3 Xrotation Yrotation Zrotation
										JOINT RightHandThumb3
										{
											OFFSET -3.058640 -1.765907 1.765906
											CHANNELS 3 Xrotation Yrotation Zrotation
											End Site
											{
												OFFSET 0.415260 3.926476 -0.049563
											}
										}
									}
								}
								JOINT RightHandIndex1
								{
									OFFSET -11.334419 -0.901459 3.706815
									CHANNELS 3 Xrotation Yrotation Zrotation
									JOINT RightHandIndex2
									{
										OFFSET -3.283112 0.000000 0.000000
										CHANNELS 3 Xrotation Yrotation Zrotation
										JOINT RightHandIndex3
										{
											OFFSET -3.323853 0.000000 0.000000
											CHANNELS 3 Xrotation Yrotation Zrotation
											End Site
											{
												OFFSET 1.135597 3.097809 0.402452
											}
										}
									}
								}
								JOINT RightHandMiddle1
								{
									OFFSET -11.335861 0.000000 0.000000
									CHANNELS 3 Xrotation Yrotation Zrotation
									JOINT RightHandMiddle2
									{
										OFFSET -3.410492 0.000000 0.000000
										CHANNELS 3 Xrotation Yrotation Zrotation
										JOINT RightHandMiddle3
										{
											OFFSET -3.312172 0.000000 0.000000
											CHANNELS 3 Xrotation Yrotation Zrotation
											End Site
											{
												OFFSET 1.150200 3.080154 0.400270
											}
										}
									}
								}
								JOINT RightHandRing1
								{
									OFFSET -11.514786 -0.013176 -3.003090
									CHANNELS 3 Xrotation Yrotation Zrotation
									JOINT RightHandRing2
									{
										OFFSET -3.053307 0.000000 0.000000
										CHANNELS 3 Xrotation Yrotation Zrotation
										JOINT RightHandRing3
										{
											OFFSET -3.295807 0.000000 0.000000
											CHANNELS 3 Xrotation Yrotation Zrotation
											End Site
											{
												OFFSET 1.281006 3.013344 0.375733
											}
										}
									}
								}
								JOINT RightHandPinky1
								{
									OFFSET -10.518692 -0.960396 -5.730441
									CHANNELS 3 Xrotation Yrotation Zrotation
									JOINT RightHandPinky2
									{
										OFFSET -2.861649 0.000000 0.000000
										CHANNELS 3 Xrotation Yrotation Zrotation
										JOINT RightHandPinky3
										{
											OFFSET -2.863380 0.000000 0.000000
											CHANNELS 3 Xrotation Yrotation Zrotation
											End Site
											{
												OFFSET 0.843597 2.711159 0.369971
											}
										}
									}
								}
							}
							JOINT RSleeve
							{
								OFFSET -6.676277 -0.344902 -1.011730
								CHANNELS 3 Xrotation Yrotation Zrotation
								End Site
								{
									OFFSET 0.000000 14.885353 0.000000
								}
							}
						}
					}
				}
				JOINT Backpack
				{
					OFFSET 0.000000 -2.471497 36.677502
					CHANNELS 3 Xrotation Yrotation Zrotation
					End Site
					{
						OFFSET 0.000000 20.427315 0.000000
					}
				}
				JOINT Hood
				{
					OFFSET 0.000000 18.754097 -10.431000
					CHANNELS 3 Xrotation Yrotation Zrotation
					JOINT Hood1
					{
						OFFSET 0.000000 -5.011002 -7.685901
						CHANNELS 3 Xrotation Yrotation Zrotation
						End Site
						{
							OFFSET 0.000000 9.175140 0.000000
						}
					}
				}
				JOINT LHoodieString
				{
					OFFSET 5.250500 16.397697 3.089900
					CHANNELS 3 Xrotation Yrotation Zrotation
					JOINT LHoodieString1
					{
						OFFSET 0.257700 -6.364304 3.694600
						CHANNELS 3 Xrotation Yrotation Zrotation
						JOINT LHoodieString2
						{
							OFFSET 0.000000 -9.643799 2.679100
							CHANNELS 3 Xrotation Yrotation Zrotation
							End Site
							{
								OFFSET 0.000000 10.009018 0.000000
							}
						}
					}
				}
				JOINT RHoodieString
				{
					OFFSET -5.250500 16.397697 3.089900
					CHANNELS 3 Xrotation Yrotation Zrotation
					JOINT RHoodieString1
					{
						OFFSET -0.257700 -6.364304 3.694600
						CHANNELS 3 Xrotation Yrotation Zrotation
						JOINT RHoodieString2
						{
							OFFSET 0.000000 -9.643799 2.679100
							CHANNELS 3 Xrotation Yrotation Zrotation
							End Site
							{
								OFFSET 0.000000 10.009018 0.000000
							}
						}
					}
				}
			}
			JOINT LBackpack_Strap
			{
				OFFSET 15.223200 -7.719803 -6.610900
				CHANNELS 3 Xrotation Yrotation Zrotation
				End Site
				{
					OFFSET 0.000000 16.040596 0.000000
				}
			}
			JOINT RBackpack_Strap
			{
				OFFSET -15.223000 -7.719803 -6.610900
				CHANNELS 3 Xrotation Yrotation Zrotation
				End Site
				{
					OFFSET 0.000000 16.040596 0.000000
				}
			}
		}
	}
	JOINT BoyFacialAnim_Joint
	{
		OFFSET 1.000000 -82.208099 -1.550900
		CHANNELS 3 Xrotation Yrotation Zrotation
		End Site
		{
			OFFSET 0.000000 30.012791 0.000000
		}
	}
}
MOTION
Frames: 4
Frame Time: 0.033333
3.863654 82.392662 -0.157077 -1.001762 -5.692254 -3.090150 -0.000000 0.000000 -0.000000 -15.896857 1.441882 9.085967 15.580800 0.031790 -0.560013 3.998271 19.070920 -3.910610 -0.000000 0.000001 -0.000000 -0.000000 0.000001 0.000000 0.000000 -0.000000 -0.000000 -1.630661 -7.063578 6.725605 6.915285 0.014140 0.258656 -4.459223 -11.357012 -4.129114 0.000000 0.000001 -0.000000 0.000000 0.000001 -0.000000 -0.000000 -0.000001 0.000000 1.229462 0.505129 1.540403 2.445942 1.039460 3.006643 2.445941 1.039460 3.006642 -10.366680 0.119989 0.577178 4.355294 0.964708 -5.375031 0.000000 0.000000 -0.000000 0.000000 0.000000 -0.000000 0.000000 0.000000 -0.000000 0.541028 -6.408580 -11.506899 5.219346 -23.305147 -67.374762 -0.587666 -8.466648 -0.086539 -16.399113 -19.518626 8.512120 -4.335574 13.385804 2.715604 4.182410 9.841766 5.499362 0.000001 -0.000001 -0.000002 -6.541130 12.138388 -12.957673 0.559524 1.148668 -11.944447 -0.000003 -0.000000 -0.000004 -0.816913 6.846547 -11.720906 -0.125437 -0.718102 -18.576438 0.000002 -0.000001 -0.000003 1.589186 5.767466 -27.770045 -0.316000 -0.713567 -18.975285 -0.000000 -0.000001 0.000001 6.002761 5.533550 -36.835084 -1.023606 -4.207204 -24.612199 -0.000002 0.000004 0.000006 0.000002 0.000001 -0.000000 0.823129 2.911053 9.036812 14.120093 27.161446 64.645350 -1.000076 9.767607 0.169695 -27.288306 18.477692 -19.314622 -7.968096 -15.884884 -4.152655 6.041874 -13.718090 -3.711793 -0.000000 0.000001 -0.000001 -6.589551 -7.936954 12.904439 0.082846 -0.574467 4.866586 0.000000 0.000003 0.000002 -0.079365 -6.181314 13.785203 -0.091323 0.458878 10.424939 0.000001 -0.000001 -0.000001 -0.582819 -4.019930 20.369695 -0.358500 0.446843 9.351806 -0.000000 0.000000 0.000000 1.513195 -3.501506 22.411908 -1.288489 4.063865 12.536167 -0.000000 0.000001 0.000000 0.000000 -0.000000 0.000000 -0.000000 0.000000 0.000000 -0.000000 0.000000 0.000000 -0.000000 0.000000 0.000000 -0.000000 0.000000 0.000000 -0.000000 0.000000 -0.000000 -0.000000 0.000000 0.000000 -0.000000 0.000000 0.000000 -0.000000 0.000000 -0.000000 -0.000000 0.000000 0.000000 0.000000 -0.000000 -0.000000 0.000000 -0.000000 -0.000000 -0.000000 0.000000 -0.000000 
3.855049 82.391640 -0.145905 -0.956357 -5.686077 -3.078299 0.000000 -0.000000 -0.000000 -15.939042 1.443048 9.081825 15.588568 0.031628 -0.560107 3.988017 19.059288 -3.908928 -0.000000 0.000000 -0.000000 -0.000000 0.000000 -0.000000 0.000000 0.000000 -0.000001 -1.688199 -7.057808 6.724032 6.942933 0.014461 0.260001 -4.453599 -11.376378 -4.145295 0.000000 -0.000002 0.000000 0.000000 -0.000002 0.000000 0.000000 -0.000002 0.000001 1.227907 0.509502 1.537765 2.442747 1.048083 3.001327 2.442748 1.048085 3.001330 -10.366174 0.126306 0.560637 4.357769 0.962238 -5.363520 -0.000000 0.000000 -0.000000 -0.000000 0.000000 -0.000000 -0.000000 0.000000 -0.000000 0.540924 -6.413323 -11.514375 5.202253 -23.313316 -67.365022 -0.585961 -8.463588 -0.086233 -16.406825 -19.518912 8.529125 -4.335574 13.385804 2.715606 4.182410 9.841762 5.499364 0.000000 0.000001 -0.000001 -6.536732 12.141903 -13.019633 0.561467 1.157813 -12.074879 0.000002 -0.000001 -0.000002 -0.818268 6.840112 -11.844147 -0.132512 -0.738938 -18.987660 0.000000 0.000000 -0.000003 1.583150 5.755876 -27.899193 -0.320237 -0.725847 -19.105129 -0.000000 -0.000001 -0.000001 6.016974 5.560876 -36.673932 -1.011152 -4.180027 -24.448829 0.000001 0.000000 -0.000000 0.000001 0.000000 -0.000001 0.823269 2.924175 9.052867 14.086408 27.164839 64.655445 -1.004002 9.753088 0.170114 -27.254801 18.502684 -19.326963 -7.968098 -15.884884 -4.152653 6.041877 -13.718091 -3.711790 -0.000001 -0.000001 0.000001 -6.598909 -7.942915 12.787147 0.098675 -0.576800 4.750755 -0.000000 0.000003 0.000006 -0.079365 -6.181323 13.785229 -0.091325 0.458883 10.424926 -0.000000 0.000000 -0.000000 -0.582813 -4.019940 20.369731 -0.358509 0.446848 9.351805 0.000000 0.000001 0.000002 1.513196 -3.501506 22.411958 -1.288490 4.063857 12.536151 -0.000001 0.000001 -0.000001 -0.000000 -0.000000 0.000000 0.000000 -0.000000 0.000000 0.000000 -0.000000 0.000000 0.000000 -0.000000 0.000000 0.000000 -0.000000 0.000000 0.000000 -0.000000 -0.000000 -0.000000 -0.000000 -0.000000 0.000000 -0.000000 0.000000 0.000000 -0.000000 -0.000000 -0.000000 -0.000000 -0.000000 0.000000 0.000000 0.000000 0.000000 0.000000 0.000000 0.000000 -0.000000 -0.000000 
3.846101 82.390770 -0.124507 -0.901415 -5.665903 -3.068416 0.000000 0.000000 -0.000000 -15.990965 1.440827 9.078658 15.605760 0.031463 -0.560416 3.964218 19.036010 -3.898092 0.000000 0.000001 -0.000000 0.000000 0.000001 -0.000000 0.000000 0.000000 -0.000000 -1.733770 -7.046956 6.728261 6.943155 0.014531 0.260100 -4.435784 -11.411332 -4.162021 -0.000000 0.000000 -0.000000 -0.000000 0.000000 -0.000000 -0.000000 0.000001 0.000000 1.223948 0.511662 1.536125 2.434791 1.052230 2.998200 2.434794 1.052229 2.998202 -10.366281 0.132178 0.544689 4.359508 0.959956 -5.353405 0.000000 0.000000 -0.000000 0.000000 0.000000 -0.000000 0.000000 0.000000 -0.000000 0.540570 -6.418472 -11.521420 5.185078 -23.318986 -67.360671 -0.582479 -8.459369 -0.085676 -16.404163 -19.509687 8.532738 -4.335575 13.385810 2.715602 4.182410 9.841762 5.499362 0.000001 -0.000001 -0.000001 -6.529849 12.147429 -13.116758 0.563572 1.167662 -12.211851 0.000002 -0.000001 -0.000000 -0.819602 6.833868 -11.963972 -0.139323 -0.758543 -19.375505 0.000004 -0.000001 -0.000000 1.578684 5.747341 -27.994285 -0.323374 -0.734876 -19.200679 -0.000004 -0.000002 -0.000001 6.032587 5.591027 -36.496187 -0.997510 -4.150006 -24.268634 -0.000002 0.000004 0.000006 0.000002 0.000000 0.000000 0.823180 2.937269 9.066415 14.022452 27.192032 64.689739 -1.010981 9.657245 0.169621 -27.263800 18.579405 -19.306004 -7.968098 -15.884882 -4.152659 6.041877 -13.718089 -3.711792 -0.000001 -0.000000 -0.000003 -6.607872 -7.949540 12.672942 0.115689 -0.579895 4.637926 0.000000 0.000001 0.000004 -0.079368 -6.181325 13.785215 -0.091327 0.458883 10.424931 0.000000 0.000001 0.000002 -0.582812 -4.019933 20.369690 -0.358500 0.446842 9.351799 0.000001 0.000003 0.000001 1.513183 -3.501519 22.411927 -1.288478 4.063872 12.536183 0.000001 -0.000001 -0.000002 -0.000001 0.000000 0.000000 -0.000000 0.000000 -0.000001 -0.000000 0.000000 -0.000001 -0.000000 0.000000 -0.000001 -0.000000 0.000000 -0.000001 -0.000000 0.000000 -0.000001 -0.000001 0.000000 -0.000000 -0.000000 0.000000 -0.000001 -0.000000 0.000000 -0.000001 -0.000001 0.000000 -0.000000 -0.000000 -0.000000 -0.000000 -0.000000 -0.000000 -0.000000 0.000000 0.000000 -0.000000 
3.837053 82.390259 -0.094196 -0.839564 -5.638646 -3.058202 -0.000000 0.000000 0.000000 -16.049452 1.437218 9.073327 15.631229 0.031373 -0.560734 3.923051 19.000586 -3.864853 0.000000 -0.000001 -0.000000 0.000000 -0.000001 0.000000 0.000000 -0.000000 0.000000 -1.767754 -7.035764 6.733482 6.921732 0.014367 0.259253 -4.412239 -11.451550 -4.172639 -0.000000 0.000002 -0.000000 -0.000000 0.000002 -0.000000 0.000000 -0.000002 0.000001 1.217170 0.512268 1.535028 2.421229 1.053232 2.996356 2.421227 1.053234 2.996356 -10.367527 0.137852 0.528547 4.360432 0.957334 -5.343293 -0.000000 0.000000 -0.000000 -0.000000 0.000000 -0.000000 -0.000000 0.000000 -0.000000 0.540367 -6.422581 -11.526973 5.166034 -23.321744 -67.363355 -0.578193 -8.454764 -0.085024 -16.399243 -19.501602 8.522995 -4.335573 13.385808 2.715603 4.182413 9.841764 5.499364 0.000000 -0.000001 0.000003 -6.520829 12.154666 -13.244054 0.565817 1.178049 -12.353406 0.000000 -0.000001 -0.000000 -0.820893 6.827921 -12.078530 -0.145761 -0.776752 -19.736651 -0.000000 -0.000000 -0.000003 1.575927 5.742073 -28.052977 -0.325321 -0.740447 -19.259675 -0.000001 0.000001 0.000003 6.049493 5.623773 -36.302930 -0.982788 -4.117326 -24.072795 0.000000 0.000003 0.000004 0.000003 0.000000 0.000000 0.823142 2.949720 9.072494 13.937858 27.227579 64.749777 -1.019211 9.517909 0.168541 -27.315040 18.688651 -19.253405 -7.968096 -15.884882 -4.152655 6.041875 -13.718090 -3.711792 0.000000 0.000000 -0.000000 -6.616455 -7.956807 12.561826 0.133788 -0.583722 4.528203 -0.000002 -0.000000 -0.000002 -0.079370 -6.181318 13.785256 -0.091323 0.458887 10.424907 0.000001 0.000001 0.000002 -0.582813 -4.019931 20.369738 -0.358508 0.446846 9.351822 -0.000001 0.000004 0.000004 1.513186 -3.501511 22.411919 -1.288485 4.063864 12.536202 0.000001 -0.000002 -0.000002 -0.000002 0.000000 -0.000000 0.000001 -0.000000 0.000000 0.000001 -0.000000 0.000000 0.000001 -0.000000 0.000000 0.000001 -0.000000 0.000000 0.000001 -0.000000 -0.000000 0.000001 -0.000000 -0.000000 0.000001 -0.000000 0.000000 0.000001 -0.000000 -0.000000 0.000001 -0.000000 -0.000000 0.000000 0.000000 0.000000 0.000000 0.000000 0.000000 -0.000000 0.000000 0.000000 
